<svg width="124" height="139" viewBox="0 0 124 139" fill="none" xmlns="http://www.w3.org/2000/svg">
<path d="M0.437676 100.817C0.437676 98.3587 2.44884 96.3476 4.83244 96.3476H16.3035L21.5176 79.9603H4.83244C2.44884 79.9603 0.437676 77.9492 0.437676 75.5656C0.437676 73.1075 2.44884 71.1708 4.83244 71.1708H24.3482L42.1507 15.4541C45.2047 5.24935 51.5361 0.482149 62.0389 0.482149C72.5416 0.482149 78.7241 5.24935 81.8525 15.4541L99.5806 71.1708H119.022C121.48 71.1708 123.491 73.1075 123.491 75.5656C123.491 77.9492 121.48 79.9603 119.022 79.9603H102.411L107.625 96.3476H119.022C121.48 96.3476 123.491 98.3587 123.491 100.817C123.491 103.2 121.48 105.212 119.022 105.212H110.456L115.521 121.077C116.117 123.163 116.564 125.1 116.564 127.036C116.564 134.336 111.424 138.21 104.273 138.21C97.6439 138.21 93.845 135.081 92.1318 128.75L85.279 105.212H38.6498L31.7969 128.675C30.0837 134.932 26.5083 138.21 19.8789 138.21C12.8771 138.21 7.4395 134.485 7.4395 127.036C7.4395 124.802 7.73745 123.238 8.40784 121.077L13.473 105.212H4.83244C2.44884 105.212 0.437676 103.2 0.437676 100.817ZM61.5174 26.6273L48.5566 71.1708H75.3721L62.4113 26.6273H61.5174ZM41.1823 96.3476H82.7464L77.9047 79.9603H46.024L41.1823 96.3476Z" fill="white"/>
</svg>
