<svg width="182" height="182" viewBox="0 0 182 182" fill="none" xmlns="http://www.w3.org/2000/svg">
<g clip-path="url(#clip0_267_815)">
<path d="M136.391 12.5963C166.168 29.6465 184.595 64.3675 181.207 98.7198C176.989 141.482 147.844 174.176 104.914 180.277C54.3333 187.467 9.80253 156.85 1.35988 106.14C-11.1902 30.7588 69.3808 -25.7764 136.391 12.5963ZM136.67 52.8338C131.25 56.1857 125.832 50.3904 129.142 45.1947L143.236 31.0646C143.191 30.6959 141.689 29.5206 141.245 29.1578C137.237 25.8869 131.702 22.3911 127.172 20.0196C60.1196 -15.0971 -14.2512 57.3909 18.3951 125.079C20.6197 129.69 23.3599 134.034 26.2891 138.148C26.7718 138.825 27.2695 139.536 27.6532 140.279L30.4864 143.562L31.167 143.287L44.8983 129.432C50.2289 126.317 55.6945 131.81 52.4835 137.065L38.2155 151.351C38.5273 152.053 38.983 151.996 39.2439 152.224C61.2409 171.454 94.0432 176.574 121.302 165.41C168.501 146.075 186.918 82.9198 154.155 42.0437C153.328 41.0093 152.05 39.885 151.166 38.8357" fill="white"/>
<path d="M79.9281 134.829C67.45 133.489 58.0989 123.841 54.1954 112.217C52.6993 107.762 50.8975 99.76 51.2513 95.1339C51.4221 92.8973 53.0381 90.7267 55.2477 90.1361C56.2401 89.8722 57.1935 90.6307 56.4679 88.8169C55.8084 87.1649 54.81 85.471 54.1984 83.6602C52.7173 79.2859 50.8465 71.1071 51.2632 66.586C51.5211 63.7977 53.5538 61.78 56.324 61.5282C58.4767 61.3333 62.2063 61.87 64.3889 62.2237C67.393 62.7124 70.3132 63.7678 73.2963 64.2205C73.1134 63.1112 73.0385 62.0948 73.0744 60.9645C73.3053 53.6732 76.831 45.7072 80.7316 39.666C81.9698 37.7472 86.2301 32.0868 87.993 31.0285C92.8199 28.1293 97.0982 34.3744 99.5656 37.8402C104.911 45.3564 109.118 54.8154 108.149 64.2205C108.521 64.5832 112.691 63.1022 113.489 62.9283C116.511 62.2687 122.624 61.1954 125.55 61.5462C128.263 61.873 130.242 64.1755 130.323 66.8438C130.539 73.9703 128.075 82.4579 125.217 88.9998C125.118 89.2246 124.507 89.2906 124.789 90.0761C126.249 89.8303 127.571 90.5888 128.626 91.5302C130.563 93.2601 130.482 97.1666 130.194 99.64C128.455 114.679 121.317 130.026 105.418 134.001C102.342 134.769 99.4037 134.97 96.2348 134.823V147.079C96.2348 148.983 93.9952 151.678 92.0854 151.924C89.2162 152.296 86.7638 151.24 85.8403 148.479C85.7684 148.269 85.4416 148.011 85.4416 147.975V134.82C83.6757 134.682 81.664 135.006 79.9311 134.82L79.9281 134.829ZM91.0091 44.502C90.7992 44.406 90.6133 44.412 90.3945 44.442C90.3255 44.6789 90.3105 44.9697 90.1576 45.1675C84.3323 52.7737 81.3642 64.2984 87.3244 72.6751C87.7231 73.2328 90.4784 76.3448 90.9431 76.3688L93.9832 73.0439C99.6016 65.2338 97.8627 55.6789 93.2876 47.7609C93.0538 47.3592 91.1919 44.5799 91.0091 44.499V44.502ZM85.4356 95.7035V92.4416C85.4356 90.8436 84.1794 86.9701 83.4449 85.438C81.1123 80.5811 76.3334 77.1303 71.3895 75.2325C68.6642 74.1862 65.5882 73.4846 62.728 72.9929C63.9512 81.7654 68.2955 91.728 77.3467 94.6872C79.9191 95.5296 82.7403 95.6316 85.4356 95.7035ZM118.715 72.9929C109.996 74.363 99.7455 78.7793 97.0922 87.9085C96.3607 90.4299 96.1808 93.0682 96.2288 95.7035C103.772 95.9764 110.056 93.0592 114.085 86.6882C115.989 83.6781 117.728 79.25 118.424 75.7362C118.607 74.8188 118.81 73.9403 118.712 72.9929H118.715ZM85.4356 124.26V120.777C85.4356 117.314 82.6683 111.734 80.2789 109.297C76.7771 105.723 68.6852 102.015 63.7353 101.55C63.3996 101.517 63.0578 101.556 62.725 101.55C63.9992 110.175 68.1575 120.075 77.0769 123.067C79.6523 123.931 82.7283 124.266 85.4386 124.263L85.4356 124.26ZM118.939 101.553C118.352 101.136 111.786 103.118 110.692 103.535C104.507 105.879 99.5267 109.741 97.1462 115.89C96.5226 118.627 96.0699 121.397 96.2258 124.263C101.595 124.302 107.046 122.854 110.967 119.098C115.567 114.691 117.803 107.693 118.939 101.556V101.553Z" fill="white"/>
</g>
<defs>
<clipPath id="clip0_267_815">
<rect width="181.55" height="181.079" fill="white" transform="translate(0.0556641 0.241211)"/>
</clipPath>
</defs>
</svg>
