<svg width="183" height="193" viewBox="0 0 183 193" fill="none" xmlns="http://www.w3.org/2000/svg">
<g clip-path="url(#clip0_267_818)">
<path d="M115.139 1.19366C117.894 3.14963 117.232 6.59991 117.511 9.47009C119.163 26.5545 126.337 47.5083 137.788 60.7141C138.753 61.8288 140.169 62.5638 141.274 61.1333C144.876 56.462 147.182 50.7854 149.496 45.4156C151.689 42.3116 156.078 41.8924 158.65 44.9175C159.829 46.3055 160.91 48.3374 161.909 49.8743C171.908 65.2487 179.732 82.9101 181.821 101.337C186.954 146.601 155.23 181.52 112.652 190.373C72.1623 198.795 30.1211 184.019 11.1263 146.039C2.35476 128.508 -0.336218 108.107 1.23706 88.4956C1.92651 79.8942 3.94019 69.5646 6.209 61.4096C6.9926 58.5972 7.97059 54.0079 11.4877 53.446C18.8742 52.2646 18.5705 59.5205 20.9578 64.3223C23.5121 69.4583 29.2068 75.5115 33.9692 78.3179C35.2813 79.0923 39.4787 81.3642 40.8576 81.3277C42.7438 81.2792 42.437 79.2715 42.6192 78.1599C43.3178 73.8592 44.2077 69.0331 45.3558 64.5562C52.4629 36.8658 72.7181 7.5293 102.513 1.12076C105.973 0.376645 112.205 -0.88684 115.136 1.19366H115.139ZM106.535 12.0669C105.772 11.7237 105.426 12.4618 105.359 12.4769C77.8328 18.4876 61.4743 45.3002 55.7947 70.6489C55.005 74.1721 54.6588 77.7651 53.9784 81.2427C52.4963 88.8418 45.6564 94.2177 37.8083 92.4683C31.1476 90.9831 22.4278 84.693 17.875 79.6208C16.7542 78.3725 15.9494 76.6595 14.4794 75.7727C14.4095 76.3376 14.5644 77.0058 14.4945 77.5434C14.1696 80.0369 13.3465 83.059 13.0336 85.8076C12.004 94.8343 11.8916 104.271 13.0549 113.288C17.0792 144.444 36.3018 169.863 67.0749 178C88.3294 183.618 109.687 181.854 129.168 172.958C159.78 158.974 176.081 129.282 169.414 95.952C167.209 84.9268 162.553 73.5676 156.873 63.6147C156.57 63.0832 155.488 60.6473 155.045 60.6807C151.731 66.2449 148.266 72.7446 141.195 73.3004C134.125 73.8562 130.881 70.5031 126.926 65.4157C115.564 50.7915 109.065 32.0701 106.559 14.0138C106.471 13.3729 106.571 12.7108 106.538 12.07L106.535 12.0669Z" fill="white"/>
<path d="M119.716 115.139C120.384 115.443 120.423 115.333 121.061 115.54C121.857 115.795 122.528 116.606 123.485 116.205C123.761 116.089 124.663 115.193 124.791 115.133C128.108 113.569 131.98 115.525 132.998 118.911L133.025 145.593C131.953 148.339 129.508 150.316 126.337 149.769C125.089 149.557 123.807 148.16 122.978 148.147C122.729 148.144 121.729 148.488 121.383 148.6C114.944 150.659 108.156 149.669 103.215 144.551C94.1484 135.16 98.0209 119.464 110.203 115.537C111.685 115.06 114.865 114.498 116.572 114.647C116.979 114.683 119.57 115.069 119.716 115.136V115.139ZM121.699 132.226C121.699 128.885 118.99 126.176 115.646 126.176C112.302 126.176 109.593 128.885 109.593 132.226C109.593 135.567 112.302 138.276 115.646 138.276C118.99 138.276 121.699 135.567 121.699 132.226Z" fill="white"/>
<path d="M46.5401 118.176L51.4604 114.048C56.3412 109.307 64.1621 115.044 60.733 120.994C59.5455 123.057 53.6806 126.838 51.6183 128.73C51.4118 128.918 50.8469 129.329 50.9015 129.626L61.216 140.059C64.7756 143.722 62.3063 150.024 57.1977 150.024C53.0428 150.024 49.6775 144.071 46.6464 141.754C46.4399 142.58 46.5978 143.436 46.4915 144.287C45.6988 150.65 37.8962 151.983 35.2173 145.942L35.1748 103.634C35.6972 103.415 35.5119 103.029 35.7002 102.683C37.5924 99.1598 42.9531 98.7771 45.3039 101.994C45.7109 102.549 46.5462 104.502 46.5462 105.04V118.173L46.5401 118.176Z" fill="white"/>
<path d="M88.4752 112.867C89.4502 113.171 91.8192 114.346 92.8276 115.012C94.4828 116.102 96.0652 118.504 95.7858 120.567C95.3059 124.096 91.9468 126.35 88.4874 125.566C87.558 125.356 85.6962 123.917 85.0766 123.768C81.8571 122.999 78.5222 123.777 76.548 126.614C73.1524 131.495 76.4326 137.633 82.0272 138.435C83.0781 138.587 85.3985 137.87 86.1882 137.138C86.4464 136.898 86.4798 136.467 86.7501 136.236C91.4244 132.227 98.1093 136.333 96.2475 142.331C95.6218 144.345 92.211 147.051 90.334 148.008C81.4805 152.524 70.1759 148.236 65.7659 139.385C58.431 124.67 72.3142 107.838 88.4752 112.867Z" fill="white"/>
<path d="M145.958 100.472C147.075 101.308 147.81 102.638 148.117 104.002L148.123 145.177C146.553 151.349 138.365 151.458 136.749 145.153L136.725 103.999C137.718 99.7798 142.35 97.7813 145.958 100.475V100.472Z" fill="white"/>
</g>
<defs>
<clipPath id="clip0_267_818">
<rect width="181.55" height="192.609" fill="white" transform="translate(0.811523 0.0546875)"/>
</clipPath>
</defs>
</svg>
