<svg width="183" height="182" viewBox="0 0 183 182" fill="none" xmlns="http://www.w3.org/2000/svg">
<g clip-path="url(#clip0_267_828)">
<path d="M182.239 90.909C182.239 141.031 141.599 181.661 91.4658 181.661C41.3327 181.661 0.689453 141.031 0.689453 90.909C0.689453 40.7896 41.33 0.157227 91.4631 0.157227C141.596 0.157227 182.237 40.7896 182.237 90.909H182.239ZM171.416 90.909C171.416 46.7633 135.62 10.9727 91.4631 10.9727C47.3065 10.9727 11.5077 46.7606 11.5077 90.909C11.5077 135.057 47.3037 170.845 91.4604 170.845C135.617 170.845 171.413 135.057 171.413 90.909H171.416Z" fill="white"/>
<path d="M91.721 97.6785C93.8268 98.8405 94.2332 101.887 94.9997 103.835C98.9522 113.917 103.142 124.127 106.734 134.282C107.539 136.554 107.782 138.054 106.162 140.005C105.63 140.646 105.294 140.654 104.732 140.919C104.539 141.011 104.558 141.24 104.413 141.284C103.832 141.453 102.937 141.524 102.324 141.451C98.6221 140.998 98.243 137.073 97.1628 134.274C97.1028 134.121 96.8709 134.14 96.7973 133.966C96.6609 133.646 96.9255 133.09 96.3827 132.82L81.3392 132.711C79.9671 135.207 79.6916 139.339 77.0676 140.848C75.139 141.955 72.7932 141.508 71.4375 139.8C69.7899 137.722 70.4419 135.744 71.252 133.477C73.7124 126.595 76.7375 119.762 79.3998 112.815C80.5918 109.702 83.1477 100.693 85.1608 98.6005C86.7674 96.9311 89.6697 96.5465 91.7237 97.6785H91.721ZM84.8034 123.745H92.9866L88.9932 112.97L84.8034 123.745Z" fill="white"/>
<path d="M57.8584 138.21C57.8366 138.303 57.0564 139.658 56.92 139.855C56.5518 140.387 55.5125 141.061 54.9042 141.243C52.0183 142.116 49.5852 140.294 48.8869 137.602L48.8623 101.282C48.9632 100.371 49.6124 98.9388 50.2671 98.2923C50.979 97.5913 52.3811 97.1003 53.3685 97.0076C57.0346 96.6721 64.0558 96.6911 67.7437 96.9967C73.0464 97.4358 73.7311 104.19 69.4785 105.731C69.3094 105.791 68.0165 106.184 67.9346 106.184H57.8557V114.364H66.9363C67.9155 114.364 69.6395 115.275 70.2287 116.115C71.6307 118.112 71.3852 120.963 69.4513 122.463C69.2221 122.64 67.0754 123.543 66.9336 123.543H57.8529V138.21H57.8584Z" fill="white"/>
<path d="M109.65 106.186C109.413 106.148 107.754 105.518 107.487 105.354C105.752 104.29 105.302 102.419 105.547 100.488C105.657 99.6395 106.712 98.1284 107.416 97.6674C107.574 97.5637 107.844 97.6483 107.986 97.5856C108.18 97.4983 108.161 97.2637 108.308 97.2228C108.758 97.0918 109.549 97.0264 110.04 96.9964C116.36 96.6172 123.057 97.3046 129.418 96.9964C130.463 97.0618 131.709 97.4628 132.489 98.1502C133.79 99.2958 134.145 100.872 133.812 102.602C133.586 103.788 132.432 105.237 131.295 105.671C131.095 105.747 129.699 106.181 129.609 106.181H124.121V138.207C124.121 138.294 123.346 139.505 123.207 139.685C121.949 141.303 119.906 141.854 117.986 141.139C117.833 141.082 116.949 140.526 116.824 140.419C116.464 140.111 115.141 138.335 115.141 138.008V106.181C113.469 105.99 111.251 106.44 109.653 106.181L109.65 106.186Z" fill="white"/>
<path d="M108.637 45.8404C109.924 47.6407 110.129 51.2632 110.598 53.5572C111.4 57.4988 112.344 61.6231 113.132 65.5892C113.263 66.2466 113.009 67.1195 113.645 67.6705C113.874 67.4277 113.669 66.9422 113.748 66.6121C113.937 65.8211 114.747 64.0235 115.088 62.927C116.285 59.0563 117.543 54.5092 118.781 50.6603C119.373 48.8191 119.992 45.7613 121.632 44.7248C122.854 43.9528 124.586 43.7128 125.971 44.1383C126.111 44.182 127.679 45.3658 127.84 45.5949C129.253 47.608 130.68 54.4164 131.525 57.1414C132.483 60.2211 133.454 63.107 134.31 66.3312C134.335 66.4239 135.063 66.8631 134.703 67.6705C135.377 67.2804 135.188 66.2139 135.317 65.592C136.318 60.7502 137.403 55.5975 138.44 50.5567C138.634 49.6156 138.702 48.3336 138.895 47.4552C138.928 47.308 139.242 47.3489 139.286 47.177C139.348 46.9343 139.228 46.6533 139.346 46.3723C139.378 46.2905 140.368 45.2049 140.543 45.0685C141.765 44.1274 143.407 43.7946 144.929 44.1792C145.142 44.2338 146.953 45.4585 147.027 45.5786C147.128 45.7477 147.027 46.0505 147.092 46.1568C148.669 48.7537 147.575 49.9511 147.084 52.6189C145.229 62.7088 143.284 72.7223 141.097 82.7494C141.004 83.175 141.176 83.6905 141.083 84.0997C141.05 84.2388 140.767 84.2061 140.701 84.3861C140.622 84.6125 140.72 84.9344 140.578 85.2208C139.256 87.8721 136.52 88.955 133.705 87.9267C131.533 87.1356 130.808 85.0898 130.159 83.0877C128.246 77.1985 126.713 70.3164 124.387 64.6264C124.28 64.3672 124.308 64.149 124.321 63.8817C123.945 63.8353 124.204 64.2772 124.119 64.5363C124.065 64.7055 123.776 64.6536 123.732 64.82C122.333 70.281 120.562 75.5046 118.798 81.0037C117.96 83.6087 117.731 86.8356 114.744 87.9267C112.927 88.5895 111.776 88.4941 110.039 87.6321C108.697 86.9665 108.148 85.6436 107.747 84.3834C107.524 83.6796 107.529 83.5432 107.352 82.7467C105.216 73.2542 103.511 63.778 101.727 54.25C101.362 52.2997 100.388 49.9975 100.565 48.0063C100.931 43.9065 106.201 42.428 108.642 45.8404H108.637Z" fill="white"/>
<path d="M98.9039 66.1237C98.9039 78.3795 88.9667 88.3139 76.7083 88.3139C64.4498 88.3139 54.5127 78.3795 54.5127 66.1237C54.5127 53.868 64.4498 43.9336 76.7083 43.9336C88.9667 43.9336 98.9039 53.868 98.9039 66.1237ZM89.8996 66.1292C89.8996 58.8407 83.9914 52.9351 76.7028 52.9351C69.4143 52.9351 63.506 58.8434 63.506 66.1292C63.506 73.415 69.4143 79.3233 76.7028 79.3233C83.9914 79.3233 89.8996 73.415 89.8996 66.1292Z" fill="white"/>
<path d="M52.7672 79.2469C52.9991 79.2905 54.7203 80.2261 54.9658 80.4416C56.5315 81.811 56.8261 84.1023 55.8714 85.9408C55.1267 87.3755 53.3946 88.2512 51.7716 88.4285C49.2075 88.7067 41.9108 88.7476 39.4067 88.4148C38.8066 88.3357 37.08 87.7002 36.5808 87.3428C35.757 86.7564 35.7598 85.6489 35.1133 85.0924V47.0623C35.6397 46.6559 35.6152 46.0503 36.1035 45.423C36.5917 44.7956 37.0009 44.7601 37.5328 44.5064C37.7265 44.4164 37.7074 44.1846 37.8519 44.1409C40.0887 43.4917 42.1263 44.2037 43.2938 46.1704C43.3647 46.2876 43.5993 46.3095 43.6266 46.3722C43.7438 46.6395 43.692 46.9996 43.7738 47.3242C43.8229 47.5179 44.0848 47.7606 44.0848 47.8152V79.2414H52.7672V79.2469Z" fill="white"/>
</g>
<defs>
<clipPath id="clip0_267_828">
<rect width="181.55" height="181.506" fill="white" transform="translate(0.689453 0.157227)"/>
</clipPath>
</defs>
</svg>
