<svg width="183" height="182" viewBox="0 0 183 182" fill="none" xmlns="http://www.w3.org/2000/svg">
<g clip-path="url(#clip0_267_825)">
<path d="M99.0983 0.460699C124.988 2.19462 151.197 17.3963 166.366 39.2329C182.809 62.9091 186.456 91.0339 178.293 118.571C168.282 152.336 140.16 175.611 105.76 180.355C56.7174 187.118 13.1986 158.941 2.97383 110.169C-9.6784 49.8342 38.2646 -3.61131 99.0983 0.460699ZM104.804 11.8694C48.8172 2.40053 -1.02232 56.5423 14.0574 111.608C16.6339 121.014 23.8107 135.71 31.0011 143.144C31.1122 143.257 31.1284 143.509 31.1691 143.669L31.757 143.52C38.7279 136.801 45.2735 129.576 52.4774 123.141C54.7152 122.426 57.5843 122.86 59.0311 125.057C60.5564 127.37 60.3613 129.034 59.0853 131.399L39.1885 151.206L39.2589 151.613C40.4672 152.558 41.5482 153.691 42.7484 154.634C72.2875 177.844 116.782 176.917 144.939 151.049C175.852 122.651 181.609 72.7193 153.76 40.7013C153.47 40.3708 152.72 38.9836 152.246 38.7533L151.755 38.7127L132.547 58.1435C127.25 62.1505 120.751 56.4827 124.422 50.8989C129.353 45.8055 134.538 40.9153 139.501 35.8734C140.555 34.8032 142.566 33.0449 143.411 31.9585C143.72 31.563 144.216 31.2026 144.137 30.677L135.603 24.2588C125.863 18.3445 115.454 13.671 104.801 11.8694H104.804Z" fill="white"/>
<path d="M78.2316 28.1681C79.887 28.4038 81.713 29.986 83.2275 30.8205C90.174 34.6459 96.809 38.5093 103.612 42.5543C106.329 44.1717 110.139 45.3421 111.22 48.558L111.247 79.7442C113.17 80.958 115.232 81.9577 117.177 83.101C121.228 85.4797 124.983 87.7853 129.033 90.1586C131.387 91.5376 138.811 94.9106 139.561 97.3436C140.341 108.991 139.672 120.808 139.908 132.515C139.548 136.544 136.649 137.115 133.771 138.847C126.996 142.919 120.296 146.709 113.387 150.58C110.754 152.057 108.158 154.568 104.782 154.092C103.23 153.872 97.7193 150.082 95.9935 149.104C90.0521 145.734 84.1053 142.361 78.2235 138.836C75.9829 137.492 73.0461 136.744 72.2984 133.924L71.9326 102.375C69.7896 101.269 67.7549 99.9607 65.6634 98.7469C60.6106 95.8128 55.4847 92.8895 50.5078 89.95C46.9262 87.8341 43.8322 87.4602 43.3879 82.4752C43.965 72.1691 42.6374 61.0531 43.3879 50.8419C43.7834 45.4505 46.9316 45.1958 50.8383 42.8875C58.007 38.6529 65.4331 34.2504 72.8456 30.1784C74.7367 29.1407 75.8312 27.824 78.2343 28.1654L78.2316 28.1681ZM77.7385 39.9073L77.2536 39.8531L60.0173 49.8747L77.3809 60.3893L94.9152 50.0291L77.7385 39.9073ZM100.613 79.9447V59.6524L82.8428 69.5141V89.8877L100.613 79.9447ZM54.4769 59.5711V79.9447L72.0816 89.8877V69.7579C71.1984 68.8178 69.7408 68.4466 68.714 67.8316C64.4144 65.2524 60.1338 62.6055 55.9074 60.3757C55.7719 60.3053 54.5934 59.4302 54.4742 59.5711H54.4769ZM106.912 89.6249C106.603 89.4542 106.297 89.2916 105.934 89.2808C100.166 92.4994 94.7093 95.6557 89.0659 99.0043C88.9603 99.0666 88.6975 98.9962 88.5485 99.0179L88.5729 99.641L105.942 109.568C106.706 109.587 107.101 108.798 107.337 108.679C112.111 106.265 116.958 103.32 121.531 100.535C121.913 100.302 123.241 99.9797 123.284 99.4134C123.343 98.6386 122.021 98.6034 121.528 98.308C116.679 95.4118 111.723 92.3125 106.906 89.6222L106.912 89.6249ZM82.8428 108.955V129.166L100.613 139.435V118.898C100.415 118.858 99.6321 118.587 99.5264 118.519C94.9423 115.585 90.1307 112.895 85.3543 110.269C84.9614 110.055 83.1327 108.663 82.8455 108.953L82.8428 108.955ZM128.979 108.955L111.201 118.991L111.374 139.435L128.979 129.494V108.958V108.955Z" fill="white"/>
</g>
<defs>
<clipPath id="clip0_267_825">
<rect width="181.55" height="181.108" fill="white" transform="translate(0.933594 0.241211)"/>
</clipPath>
</defs>
</svg>
